<svg width="400" height="300" xmlns="http://www.w3.org/2000/svg" viewBox="0 0 400 300">
  
  <!-- SVG 1: Tracargo logo (texto) -->
  <g transform="translate(200, 60) scale(0.8)">
    <g transform="translate(-175, -40)">
      <path class="st0" d="m191.5,34l0,23.5l4,0l4,0l0,-23.5l0,-23.5l-4,0l-4,0l0,23.5z" fill="#367C2B" stroke-width="0.1" fill-rule="evenodd" clip-rule="evenodd"/>
      <path class="st0" d="m3.5,15l0,3.5l6,0l6,0l0,19.5l0,19.5l4.5,0l4.5,0l0,-19.5l0,-19.5l6,0l6,0l0,-3.5l0,-3.5l-16.5,0l-16.5,0l0,3.5z" fill="#367C2B" stroke-width="0.1" fill-rule="evenodd" clip-rule="evenodd"/>
      <path class="st0" d="m122.7,34.2l0.3,22.8l2.4,0.3c1.5,0.3 3,-0.3 3.7,-1.3c1.2,-1.6 1.4,-1.6 3.6,-0.1c5.5,3.9 13.9,1.1 17.5,-5.7c2.2,-4.4 2.2,-15.2 -0.1,-19.5c-3.2,-6.1 -11.7,-9.1 -16.2,-5.7c-1,0.8 -2.2,1.5 -2.6,1.5c-0.5,0 -0.8,-3.4 -0.8,-7.5l0,-7.5l-4,0l-4,0l0.2,22.7zm18.1,-2.7c4.7,3.7 4.5,16.4 -0.3,19c-2.6,1.4 -6.2,1.2 -8.2,-0.4c-1.5,-1.1 -1.8,-2.9 -1.8,-9.4c0,-7.2 0.2,-8.3 2.2,-9.6c3,-2.1 5,-2 8.1,0.4z" fill="#367C2B" stroke-width="0.1" fill-rule="evenodd" clip-rule="evenodd"/>
      <path class="st0" d="m236.5,15.7c-1.7,6.2 -11.1,38.8 -11.7,40.4c-0.4,1.1 0.6,1.4 4,1.4l4.5,0l1.2,-5l1.2,-5.1l7.6,0.3l7.6,0.3l1.1,4.5c1.1,4.4 1.2,4.5 5.3,4.8c2.3,0.2 4.2,0 4.2,-0.5c0,-0.4 -2.8,-10.8 -6.2,-23.1l-6.3,-22.2l-5.7,0l-5.7,0l-1.1,4.2zm9.8,14.5c1.2,4.9 2.2,9.1 2.2,9.5c0,1.3 -10,0.9 -10,-0.3c0,-2.1 4.4,-17.9 5,-17.9c0.3,0 1.6,3.9 2.8,8.7z" fill="#367C2B" stroke-width="0.1" fill-rule="evenodd" clip-rule="evenodd"/>
      <path class="st0" d="m48.3,25.1c-1.6,0.8 -2.8,1.9 -2.8,2.4c0,0.6 -0.4,1 -1,1c-0.5,0 -1,-0.9 -1,-2c0,-1.6 -0.7,-2 -3.5,-2l-3.5,0l0.2,16.2l0.3,16.3l3.8,0.3l3.7,0.3l0,-10.5c0,-9.6 0.2,-10.7 2.2,-12.6c1.3,-1.1 3.3,-2.3 4.5,-2.6c1.9,-0.5 2.3,-1.3 2.3,-4.5c0,-4.3 -0.9,-4.7 -5.2,-2.3z" fill="#367C2B" stroke-width="0.1" fill-rule="evenodd" clip-rule="evenodd"/>
      <path class="st0" d="m62.3,25.5c-4.8,2.6 -5.2,3.4 -2.7,5.6c1.9,1.7 2.1,1.7 4.8,0.1c5.2,-3 10.1,-2 10.1,2.2c0,2.5 -0.5,2.8 -5.6,3.9c-7.3,1.5 -12,5 -12.8,9.6c-0.8,3.9 1.2,8.9 3.9,10c3,1.1 9.5,0.6 12.5,-0.9c2.7,-1.4 3,-1.4 3,0c0,1.1 1,1.5 3.5,1.5l3.5,0l0,-12.4c0,-6.7 -0.5,-13.8 -1.1,-15.6c-2.1,-5.8 -11.8,-7.8 -19.1,-4zm12.2,19.9c0,3.4 -0.4,4.1 -3.4,5.5c-3.8,1.8 -6.2,1.3 -7.1,-1.5c-0.9,-2.7 0.8,-5.2 4.7,-6.5c5.3,-2 5.8,-1.8 5.8,2.5z" fill="#367C2B" stroke-width="0.1" fill-rule="evenodd" clip-rule="evenodd"/>
      <path class="st0" d="m97.5,24.2c-2.3,0.9 -6,4.5 -7.6,7.5c-1.9,3.7 -1.8,14.2 0.2,18.4c2.5,5.2 6.2,7.4 12.8,7.4c4.8,0 6,-0.4 9.1,-3.1c1.9,-1.7 3.5,-3.5 3.5,-3.9c0,-0.4 -1.2,-1.5 -2.6,-2.5c-2.5,-1.6 -2.6,-1.6 -4.9,0.9c-3.1,3.4 -7.9,3.5 -9.9,0.3c-2.1,-3.4 -2.8,-9.2 -1.6,-13.7c1.7,-6.3 6.3,-7.8 10.7,-3.4c2.3,2.3 2.8,2.4 5.4,1.4c3.4,-1.5 3.4,-1.3 1.2,-4.7c-2.8,-4.2 -11,-6.5 -16.3,-4.6z" fill="#367C2B" stroke-width="0.1" fill-rule="evenodd" clip-rule="evenodd"/>
      <path class="st0" d="m163.6,25.3c-4.9,2.4 -7.6,8.2 -7.5,15.7c0.1,6.7 2,11.2 6,14.4c4.8,3.8 16.4,2.4 20.4,-2.4c1.1,-1.3 1,-1.8 -0.6,-3c-2.5,-1.9 -4.8,-1.9 -6.4,0c-1.7,2 -6.3,1.9 -8.9,-0.3c-1.1,-0.9 -2.4,-3.2 -2.7,-5l-0.6,-3.2l10.1,0l10.1,0l0,-4.1c0,-10.7 -10.4,-17 -19.9,-12.1zm11.3,6.4c2.9,4.1 2.1,4.8 -5,4.8c-6.3,0 -6.5,-0.1 -5.8,-2.3c1.1,-3.6 2.5,-4.7 6,-4.7c2.3,0 3.8,0.7 4.8,2.2z" fill="#367C2B" stroke-width="0.1" fill-rule="evenodd" clip-rule="evenodd"/>
      <path class="st0" d="m271.8,24.9c-6.4,2.9 -8.7,11.4 -4.3,16.1l2.1,2.3l-2.5,2.5c-3.1,3.1 -3.3,5.1 -0.6,7.4c1.9,1.6 1.9,1.7 -0.5,3.9c-6.5,6 0.2,12.4 12.8,12.4c9.2,0 15.1,-4.2 14.5,-10.6c-0.4,-5.2 -3.5,-7.1 -12.8,-8.1c-5.9,-0.6 -7.5,-1.2 -7.8,-2.6c-0.3,-1.3 0.4,-1.7 3,-1.7c10,0 15.1,-4.4 14.6,-12.5c-0.3,-4.6 -0.1,-5 2,-5.3c1.7,-0.3 2.2,-0.9 2,-2.5c-0.2,-1.7 -0.9,-2.1 -2.8,-1.9c-4.6,0.4 -7.5,0.4 -12,-0.2c-3,-0.4 -5.6,-0.1 -7.7,0.8zm10.1,6.2c5,4.9 -2.4,12.4 -7.6,7.7c-3.6,-3.3 -1.3,-9.3 3.7,-9.3c1.3,0 3.1,0.7 3.9,1.6zm1.5,26.5c3.6,1.3 4,3.2 0.9,5.3c-3.2,2.2 -9.1,2 -11.9,-0.4l-2.4,-2l2.4,-2c2.6,-2.2 6.3,-2.5 11,-0.9z" fill="#367C2B" stroke-width="0.1" fill-rule="evenodd" clip-rule="evenodd"/>
      <path class="st0" d="m308.9,26c-3,3 -3.4,3.1 -3.4,0.5c0,-1.6 -0.7,-2 -3.5,-2l-3.5,0l0,16.5l0,16.5l4,0l3.9,0l0.3,-11.3l0.3,-11.2l4.2,-2c3.8,-1.8 4.2,-2.3 4.3,-5.8c0,-3.1 -0.3,-3.7 -2,-3.7c-1.2,0 -3.2,1.1 -4.6,2.5z" fill="#367C2B" stroke-width="0.1" fill-rule="evenodd" clip-rule="evenodd"/>
      <path class="st0" d="m325.5,25.3c-4.9,2.7 -7.5,8.3 -7.4,15.9c0.3,10.3 5.3,16.5 13.6,16.5c9.5,0 14.7,-6.1 14.8,-17.2c0,-13.1 -10.6,-20.7 -21,-15.2zm9.6,5c3.8,2.5 5,14 2,18.7c-3.4,5.2 -10.1,2.3 -11.3,-4.8c-1.5,-9.3 4,-17.5 9.3,-13.9z" fill="#367C2B" stroke-width="0.1" fill-rule="evenodd" clip-rule="evenodd"/>
    </g>
  </g>
  
  <!-- SVG 2: Logo circular (reduzido) -->
  <g transform="translate(200, 150) scale(0.6)">
    <g transform="translate(-125, -93.5)">
      <path fill="#367C2B" clip-rule="evenodd" fill-rule="evenodd" 
      d="m213.2,20.2c-26.3,-12.9 -56.6,-20.2 -88.2,-20.2c-31.7,0 -62,7.3 -88.4,20.3c-9.6,23.2 -14.5,48.1 -14.5,73.2c0,25.9 5.2,50.5 14.5,73.2c26.4,
      13 56.7,20.3 88.4,20.3c31.6,0 61.9,-7.3 88.3,-20.2c9.6,-23.2 14.6,-48.1 14.6,-73.3c-0.1,-25.9 -5.3,-50.6 -14.7,-73.3l0,0z" class="st0"/>
      <path fill="#FFDE00" clip-rule="evenodd" fill-rule="evenodd" 
      d="m96.99919,72.3c-4.5,9 -7.4,18.7 -8.4,28.7c-0.4,0 -2.5,0.2 -2.5,0.2c-8.9,0.8 -18,1.5 -26.9,4.9l0.6,3.6c14.5,18 36.5,28.9 36.7,29l0.5,
      -0.5l-4.7,-7.6c-1.1,-0.9 -4.1,-1.5 -4.2,-1.5c-9.9,-3.3 -16.8,-16.2 -18,-18.4c8.2,0 15.3,2.3 22.2,4.6c4.6,1.5 8.9,2.9 13.3,3.7c7.8,1.3 16,
      -0.2 23.4,-1.1c6,-0.7 11.8,-0.7 17.6,-0.3c0.7,0.8 6.8,8.2 12.6,11.3c7.3,3.8 28.5,10.2 29.6,10.5c0.4,0.4 8.6,8.6 13.6,18.2c-23.8,10.9
       -50.5,16.7 -77.4,16.7c-26.9,0 -53.8,-5.8 -77.6,-16.9c-7.9,-20.3 -11.9,-42 -11.9,-63.8c0,-21.9 4,-43.4 11.9,-63.8c23.9,-11.1 50.7,-16.9 77.6,
       -16.9c26.9,0 53.7,5.8 77.5,16.8c7.9,20.4 11.9,42 11.9,63.9c0,20.1 -3.3,39.8 -9.9,58.5c-7.6,-13.1 -10.6,-17.1 -10.6,-17.1c-0.1,-0.1 -10.7,
       -5.6 -13.3,-7.9c-2.1,-1.8 -3.1,-5.5 -4.2,-9.8c-1.6,-5.9 -3.6,-13.2 -9.4,-19.3l6.4,-2.6c-1.8,-12.4 -16.4,-20.4 -16.5,-20.4l-0.8,0.4c5.6,7
        7.2,12.9 7.2,16.5c0,1.8 -0.3,3.1 -0.4,3.6c-1.7,-0.6 -12.4,-4.1 -36.9,-3.2c-3.6,0.1 -8.7,0 -11.8,-3c-1.7,-1.7 -2.6,-4.1 -2.6,-7.2l0,0c0,
        -8.5 3.6,-19.9 4.1,-21.5l6.4,0.8c7.6,-4.2 10.6,-7.9 11,-8.4l-0.4,-0.4c-6.5,0.8 -15,2.5 -15,2.5c0.6,-1.5 2.3,-6.4 2.3,-11.9c0,-6 -2,-12.7 -9.6,
        -16.6l-0.8,0.4c0.1,0.1 4.4,4.8 4.4,11.3c0,1.8 -0.4,3.7 -1.2,5.8c-2.5,-1 -3.5,-1.1 -6.5,-1.2c-1.4,-5.1 -5.9,-9.4 -12,-11.6l-0.7,0.4c0.1,0 6.5,4.6
         6.8,11.3c-3.2,0.3 -4.6,0.6 -8.6,1.8c-1.7,-2.8 -5.5,-4.8 -10.3,-5.4l-0.6,0.5c0.1,0 5.7,2 6.9,6.3c-3.5,1.6 -7.1,4.1 -9.6,6.1l0.2,0.9c14.6,
         -5.7 28.2,-7.3 31.7,-3.2c0.6,0.7 0.9,1.6 0.9,2.5c0,1.2 -0.5,2.6 -1.4,4.2c-7.2,1.6 -18,4.6 -26.9,8l1.2,3.7c0,0 8.9,1.8 12.3,2.5c0.2,0 1.4,
         0.1 0.8,1.4l0,0zm110,-46.6c-24.6,-11.6 -52.7,-18.1 -82,-18.1c-29.3,0 -57.4,6.5 -82.1,18.2c-8.4,21.6 -12.8,44.6 -12.8,67.8c0,23.8 4.5,46.6
          12.8,67.6c24.7,11.7 52.8,18.2 82.1,18.2c29.2,0 57.4,-6.5 82,-18.1c8.5,-21.5 12.9,-44.5 12.9,-67.7c0.1,-23.9 -4.5,-46.8 -12.9,-67.9l0,0z"
           class="st1"/>
    </g>
  </g>
  
  <!-- SVG 3: Jordan Lee (texto largo) -->
  <g transform="translate(200, 250) scale(0.4)">
    <g transform="translate(-400, -75)">
      <path class="st0" d="m347.3,117.1l0,-68.7l-15.8,0l0,46.3l-41.3,-46.3l-15.7,0l0,68.7l15.8,0l0,-46.8l41.1,46.8l15.9,0l0,0zm326.9,
       -39.2c3.3,0 8.8,-1 8.8,-7.8c0,-4.9 -3.2,-7.6 -8.8,-7.6l-28.9,0l0,15.4l28.9,0zm27,39.2l-19.1,0l-19.1,-25.1l-18.6,0l0,25.1l-15.8,0l0,-68.7l44.7,
       0c15.4,0 24.6,8.2 24.6,22c0,8.3 -4.6,17.6 -16.6,20.5l19.9,26.2l0,0zm-276.3,-85.8c30.3,0 48.4,16.3 48.4,43.5c0,19.5 -12.7,42.3 -48.4,42.3l-38.2,
       0l0,-85.8l38.2,0l0,0zm-22.3,14.2l0,57.4l22.4,0c12.1,0 32.5,-3.8 32.5,-29c0,-18.1 -11.9,-28.4 -32.5,-28.4l-22.4,0zm321.7,57.5l0,-13.3l36.5,0l0,
       -14l-36.5,0l0,-13.2l47.2,0l0,-14.1l-63,0l0,68.7l63,0l0,-14l-47.2,0l0,-0.1zm-153.4,0l0,-13.3l36.5,0l0,-14l-36.5,0l0,-13.2l47.2,0l0,-14.1l-63,0l0,
       68.7l63,0l0,-14l-47.2,0l0,-0.1zm-73.6,0l0,-13.3l36.5,0l0,-14l-36.5,0l0,-13.2l47.2,0l0,-14.1l-63,0l0,68.7l63,0l0,-14c0,
       -0.1 -47.2,-0.1 -47.2,-0.1zm-251.5,-54.6l0,27.3l-41.2,0l0,-27.3l-15.8,0l0,68.7l15.8,0l0,-27.3l41.2,0l0,27.3l15.8,0l0,-68.7l-15.8,0l0,0zm-107,
       56.3c-9.3,0 -24.8,-2.9 -24.8,-22.1c0,-13.8 9.1,-21.7 24.8,-21.7c15.8,0 24.8,7.9 24.8,21.7c0,19.2 -15.6,22.1 -24.8,22.1zm-40.6,-21.4c0,16.3
        10.6,35.4 40.6,35.4c30,0 40.6,-19.1 40.6,-35.4c0,-22.9 -15.2,-36.5 -40.6,-36.5c-25.5,0 -40.6,13.6 -40.6,36.5zm-69.6,17.5c0,0 9,3.2 
        19,3.2c10.7,0 17.4,-1.5 21.1,-5.3c3.1,-3.1 4.3,-8.3 4.2,-16.1l0,-51.2l15.8,0l0,53.5c-0.2,23.7 -11.7,33.8 -38.3,33.8c-12.9,0 -21.9,-2.1 -21.9,-2.1l0,-15.8l0.1,0z" 
       fill-rule="evenodd" clip-rule="evenodd" fill="#367C2B"/>
    </g>
  </g>

</svg>